<mxfile host="app.diagrams.net" modified="2024-05-20T20:24:46.378Z" agent="Mozilla/5.0 (Windows NT 10.0; Win64; x64) AppleWebKit/537.36 (KHTML, like Gecko) Chrome/125.0.0.0 Safari/537.36" etag="uh2PFicvIXvp86rpK2uF" version="24.4.4" type="device">
  <diagram name="Page-1" id="E0qs1Im7emHfx4f0_kuc">
    <mxGraphModel dx="1593" dy="820" grid="0" gridSize="10" guides="1" tooltips="1" connect="1" arrows="1" fold="1" page="1" pageScale="1" pageWidth="1169" pageHeight="826" background="#000000" math="0" shadow="0">
      <root>
        <mxCell id="0" />
        <mxCell id="1" parent="0" />
        <mxCell id="eLNFQZg_PLOfO7UpJZCM-26" value="Text" style="html=1;whiteSpace=wrap;strokeColor=none;fillColor=#000000;labelPosition=center;verticalLabelPosition=middle;verticalAlign=top;align=center;fontSize=12;outlineConnect=0;spacingTop=-6;fontColor=#FFFFFF;sketch=0;shape=mxgraph.sitemap.text;" vertex="1" parent="1">
          <mxGeometry x="38" y="62" width="120" height="70" as="geometry" />
        </mxCell>
        <mxCell id="eLNFQZg_PLOfO7UpJZCM-27" value="&lt;font style=&quot;font-size: 16px;&quot; color=&quot;#ffffff&quot;&gt;Pre-trained BERT Model&lt;/font&gt;" style="rounded=1;whiteSpace=wrap;html=1;fillColor=none;strokeColor=#CCE5FF;fontSize=16;" vertex="1" parent="1">
          <mxGeometry x="442" y="75" width="120" height="60" as="geometry" />
        </mxCell>
        <mxCell id="eLNFQZg_PLOfO7UpJZCM-28" value="&lt;font color=&quot;#ffffff&quot;&gt;Training&lt;/font&gt;" style="rounded=1;whiteSpace=wrap;html=1;fillColor=none;strokeColor=#CCE5FF;fontSize=16;" vertex="1" parent="1">
          <mxGeometry x="605" y="75" width="120" height="60" as="geometry" />
        </mxCell>
        <mxCell id="eLNFQZg_PLOfO7UpJZCM-29" value="&lt;font style=&quot;font-size: 16px;&quot; color=&quot;#ffffff&quot;&gt;Testing&lt;/font&gt;" style="rounded=1;whiteSpace=wrap;html=1;fillColor=none;strokeColor=#CCE5FF;fontSize=16;" vertex="1" parent="1">
          <mxGeometry x="768" y="75" width="120" height="60" as="geometry" />
        </mxCell>
        <mxCell id="eLNFQZg_PLOfO7UpJZCM-30" value="&lt;font style=&quot;font-size: 16px;&quot; color=&quot;#ffffff&quot;&gt;Data Preprocessing:&lt;/font&gt;&lt;div&gt;&lt;font style=&quot;font-size: 16px;&quot; color=&quot;#ffffff&quot;&gt;Sentence Grouping&lt;/font&gt;&lt;/div&gt;&lt;div&gt;&lt;font style=&quot;font-size: 16px;&quot; color=&quot;#ffffff&quot;&gt;Tokenisation&lt;/font&gt;&lt;/div&gt;&lt;div&gt;&lt;font style=&quot;font-size: 16px;&quot; color=&quot;#ffffff&quot;&gt;Dataset Creation&lt;/font&gt;&lt;/div&gt;" style="rounded=1;whiteSpace=wrap;html=1;fillColor=none;strokeColor=#CCE5FF;fontSize=16;" vertex="1" parent="1">
          <mxGeometry x="201" y="64" width="198" height="82" as="geometry" />
        </mxCell>
        <mxCell id="eLNFQZg_PLOfO7UpJZCM-31" value="" style="edgeStyle=orthogonalEdgeStyle;rounded=0;orthogonalLoop=1;jettySize=auto;html=1;" edge="1" parent="1" source="eLNFQZg_PLOfO7UpJZCM-32" target="eLNFQZg_PLOfO7UpJZCM-29">
          <mxGeometry relative="1" as="geometry" />
        </mxCell>
        <mxCell id="eLNFQZg_PLOfO7UpJZCM-32" value="&lt;font style=&quot;font-size: 16px;&quot; color=&quot;#ffffff&quot;&gt;Majority Voting&lt;/font&gt;" style="rounded=1;whiteSpace=wrap;html=1;fillColor=none;strokeColor=#CCE5FF;fontSize=16;" vertex="1" parent="1">
          <mxGeometry x="931" y="75" width="120" height="60" as="geometry" />
        </mxCell>
        <mxCell id="eLNFQZg_PLOfO7UpJZCM-33" style="edgeStyle=orthogonalEdgeStyle;rounded=0;orthogonalLoop=1;jettySize=auto;html=1;strokeColor=#FFFFFF;strokeWidth=4;entryX=0;entryY=0.5;entryDx=0;entryDy=0;" edge="1" parent="1" target="eLNFQZg_PLOfO7UpJZCM-30">
          <mxGeometry relative="1" as="geometry">
            <mxPoint x="158" y="105" as="sourcePoint" />
            <mxPoint x="217" y="118" as="targetPoint" />
          </mxGeometry>
        </mxCell>
        <mxCell id="eLNFQZg_PLOfO7UpJZCM-34" value="&lt;font style=&quot;font-size: 16px;&quot; color=&quot;#ffffff&quot;&gt;Prediction&lt;/font&gt;" style="rounded=1;whiteSpace=wrap;html=1;fillColor=none;strokeColor=#CCE5FF;fontSize=16;" vertex="1" parent="1">
          <mxGeometry x="1094" y="75" width="120" height="60" as="geometry" />
        </mxCell>
        <mxCell id="eLNFQZg_PLOfO7UpJZCM-35" style="edgeStyle=orthogonalEdgeStyle;rounded=0;orthogonalLoop=1;jettySize=auto;html=1;strokeColor=#FFFFFF;strokeWidth=4;entryX=0;entryY=0.5;entryDx=0;entryDy=0;exitX=1;exitY=0.5;exitDx=0;exitDy=0;" edge="1" parent="1" source="eLNFQZg_PLOfO7UpJZCM-30" target="eLNFQZg_PLOfO7UpJZCM-27">
          <mxGeometry relative="1" as="geometry">
            <mxPoint x="183" y="174" as="sourcePoint" />
            <mxPoint x="226" y="174" as="targetPoint" />
          </mxGeometry>
        </mxCell>
        <mxCell id="eLNFQZg_PLOfO7UpJZCM-36" style="edgeStyle=orthogonalEdgeStyle;rounded=0;orthogonalLoop=1;jettySize=auto;html=1;strokeColor=#FFFFFF;strokeWidth=4;entryX=0;entryY=0.5;entryDx=0;entryDy=0;" edge="1" parent="1" source="eLNFQZg_PLOfO7UpJZCM-27" target="eLNFQZg_PLOfO7UpJZCM-28">
          <mxGeometry relative="1" as="geometry">
            <mxPoint x="178" y="125" as="sourcePoint" />
            <mxPoint x="221" y="125" as="targetPoint" />
          </mxGeometry>
        </mxCell>
        <mxCell id="eLNFQZg_PLOfO7UpJZCM-37" style="edgeStyle=orthogonalEdgeStyle;rounded=0;orthogonalLoop=1;jettySize=auto;html=1;strokeColor=#FFFFFF;strokeWidth=4;" edge="1" parent="1" source="eLNFQZg_PLOfO7UpJZCM-28" target="eLNFQZg_PLOfO7UpJZCM-29">
          <mxGeometry relative="1" as="geometry">
            <mxPoint x="188" y="135" as="sourcePoint" />
            <mxPoint x="231" y="135" as="targetPoint" />
          </mxGeometry>
        </mxCell>
        <mxCell id="eLNFQZg_PLOfO7UpJZCM-38" style="edgeStyle=orthogonalEdgeStyle;rounded=0;orthogonalLoop=1;jettySize=auto;html=1;strokeColor=#FFFFFF;strokeWidth=4;entryX=0;entryY=0.5;entryDx=0;entryDy=0;" edge="1" parent="1" source="eLNFQZg_PLOfO7UpJZCM-29" target="eLNFQZg_PLOfO7UpJZCM-32">
          <mxGeometry relative="1" as="geometry">
            <mxPoint x="198" y="145" as="sourcePoint" />
            <mxPoint x="241" y="145" as="targetPoint" />
          </mxGeometry>
        </mxCell>
        <mxCell id="eLNFQZg_PLOfO7UpJZCM-39" style="edgeStyle=orthogonalEdgeStyle;rounded=0;orthogonalLoop=1;jettySize=auto;html=1;strokeColor=#FFFFFF;strokeWidth=4;entryX=0;entryY=0.5;entryDx=0;entryDy=0;exitX=1;exitY=0.5;exitDx=0;exitDy=0;" edge="1" parent="1" source="eLNFQZg_PLOfO7UpJZCM-32" target="eLNFQZg_PLOfO7UpJZCM-34">
          <mxGeometry relative="1" as="geometry">
            <mxPoint x="208" y="155" as="sourcePoint" />
            <mxPoint x="251" y="155" as="targetPoint" />
          </mxGeometry>
        </mxCell>
      </root>
    </mxGraphModel>
  </diagram>
</mxfile>
